<svg width="607" height="139" viewBox="0 0 607 139" fill="none" xmlns="http://www.w3.org/2000/svg">
<path fill-rule="evenodd" clip-rule="evenodd" d="M80.5805 72.1623C80.2179 71.8024 79.9051 71.3957 79.6502 70.9529C79.004 69.7816 78.7538 68.4327 78.937 67.1076C79.8277 60.7834 89.1613 63.3002 93.329 64.4241C93.5142 64.474 93.6892 64.5212 93.8528 64.5647C95.9448 65.1215 99.7074 66.7338 102.798 68.0584C105.389 69.1685 107.508 70.0764 107.776 69.9916C108.172 69.8667 110.999 63.677 113.584 58.0172C114.85 55.2457 116.057 52.6012 116.893 50.8581C117.168 50.1233 117.23 49.3257 117.071 48.5574C116.912 47.7891 116.538 47.0815 115.994 46.5166C110.505 39.8493 94.0388 20.5298 82.5962 12.405C71.6186 4.59039 62.5637 0.683062 49.6325 0.621041C37.4337 0.102191 25.446 3.926 15.8006 11.4127C0.481708 23.5068 -2.27818 47.3229 2.3113 65.1229C4.94715 75.5735 12.1415 83.9153 19.4908 91.6059C59.0822 134.299 67.5472 135.073 77.0015 135.937C77.7589 136.006 78.5226 136.076 79.3091 136.168C99.3726 138.587 111.094 130.462 113.42 128.291C113.616 128.107 113.763 127.878 113.849 127.624C113.936 127.37 113.959 127.099 113.916 126.834V120.632V111.329V107.607V105.871C113.759 104.939 113.262 104.1 112.521 103.514L109.42 100.413L103.218 94.4279C102.577 93.8052 101.936 93.1827 101.295 92.5602C94.3394 85.8058 87.395 79.0621 80.5805 72.1623ZM48.2372 6.20266C27.2124 6.20266 8.97856 22.3281 8.97856 49.9275C8.97856 77.93 26.5922 92.567 47.648 92.567C52.7533 92.6703 57.8167 91.6262 62.4646 89.5115C67.1125 87.3968 71.2264 84.2656 74.5027 80.3488L64.5795 68.5648C62.5753 70.9351 60.0901 72.8522 57.2886 74.1888C54.4872 75.5254 51.4335 76.251 48.3302 76.3175C36.1433 76.3175 28.2048 65.9289 28.2048 49.2763C28.2048 32.6236 37.2287 22.5452 48.6403 22.5452C51.4078 22.6227 54.1323 23.2493 56.6555 24.3885C59.1788 25.5277 61.4507 27.1569 63.3391 29.1815L73.2313 16.9943C69.9958 13.619 66.1176 10.9253 61.8251 9.07195C57.5326 7.21857 52.9126 6.24299 48.2372 6.20266Z" fill="#391197"/>
<path fill-rule="evenodd" clip-rule="evenodd" d="M122.506 90.3648C122.41 91.9261 122.599 93.4919 123.064 94.9854L123.25 95.3885C123.852 96.4782 124.627 97.4627 125.545 98.3035L161.238 134.524C162.161 135.592 163.303 136.449 164.587 137.036C165.708 137.388 166.887 137.525 168.06 137.439H191.007C191.224 137.439 191.627 137.098 191.627 136.943V114.553L210.823 135.516C211.736 136.687 212.916 137.623 214.265 138.245C215.268 138.553 216.317 138.69 217.366 138.648L249.802 138.586C249.856 138.578 249.906 138.556 249.95 138.524C249.994 138.492 250.029 138.45 250.054 138.402C250.078 138.353 250.09 138.3 250.09 138.245C250.089 138.191 250.075 138.138 250.05 138.09L219.412 96.753C222.746 94.347 225.562 91.2954 227.693 87.7793C229.824 84.2633 231.226 80.3548 231.816 76.286C232.995 68.4404 233.367 62.4243 228.715 56.0361C218.518 42.3567 206.885 29.8086 194.015 18.6064C192.863 17.5326 191.754 16.4073 190.649 15.2851C187.38 11.9673 184.138 8.67625 179.875 6.82244C175.996 5.23243 171.915 4.18877 167.75 3.72139C158.072 3.00915 147.545 2.97615 137.192 2.9437C132.219 2.92811 127.286 2.91264 122.506 2.82208V18.3273V90.3648ZM158.447 8.0315H128.584V91.2017H147.407V61.2766H157.648L173.611 91.3568H194.666L175.763 57.9435C184.635 53.9295 190.542 46.1584 190.542 33.9253C190.542 14.2336 176.091 8.0315 158.447 8.0315ZM172.215 34.1113C172.215 42.2671 166.912 46.5156 157.02 46.5156H147.407V23.1646H157.02C166.912 23.1646 172.215 25.9556 172.215 34.1113Z" fill="#391197"/>
<path fill-rule="evenodd" clip-rule="evenodd" d="M264.377 0.341116H236.995C236.995 0.341116 237.274 54.8886 238.297 68.8434C239.262 81.9938 263.881 105.471 277.097 118.073C277.905 118.844 278.671 119.574 279.386 120.259C291.79 132.136 299.542 135.516 312.721 135.764C323.816 136.352 334.847 133.748 344.507 128.26C358.238 120.873 358.208 103.987 358.184 90.5468C358.183 89.9941 358.182 89.4473 358.182 88.9072V41.8642L316.07 0H287.913V22.5757L264.377 0.341116ZM242.949 6.2025V51.943C242.949 80.6277 255.477 93.0319 278.486 93.0319C301.496 93.0319 313.497 80.6277 313.497 51.943V6.2025H294.301V53.9277C294.301 70.6423 288.565 76.4413 278.548 76.4413C268.532 76.4413 263.043 70.6423 263.043 53.9277V6.2025H242.949Z" fill="#391197"/>
<path fill-rule="evenodd" clip-rule="evenodd" d="M510.41 1.89154H484.827L485.075 94.4269L525.388 137.066L553.824 136.787V115.607L576.027 136.291H606.541V42.2052L565.825 2.26367L535.714 2.17064V22.5756L510.41 1.89154ZM511.309 7.72161H490.781V90.8918H511.309V56.16H542.598V90.8918H563.127V7.72161H542.598V39.7555H511.309V7.72161Z" fill="#391197"/>
<path fill-rule="evenodd" clip-rule="evenodd" d="M367.671 78.9782C367.577 82.4926 367.485 85.9321 367.485 89.3103C367.485 90.258 372.961 96.1 376.492 99.8672C377.351 100.784 378.096 101.578 378.618 102.149C383.998 107.994 389.691 113.542 395.673 118.77C407.736 129.097 422.032 137.191 438.25 137.656C464.608 138.431 475.462 118.026 475.958 107.948C475.826 101.02 473.67 94.2831 469.756 88.566C464.419 79.8897 457.777 72.0871 450.065 65.4322C450.294 64.999 450.667 64.659 451.119 64.4709C451.791 64.2319 452.525 64.2319 453.197 64.4709C454.325 64.8233 455.76 65.5029 457.307 66.2355C460.525 67.7586 464.226 69.511 466.655 69.0294C469.229 68.5022 474.47 46.5158 474.47 45.6165C474.1 42.7653 471.101 39.8917 468.897 37.7801C468.512 37.4112 468.152 37.0656 467.833 36.7474C458.709 27.2662 448.699 18.6786 437.94 11.1017C434.511 8.63327 430.916 6.4055 427.179 4.43447C423.442 2.90427 419.523 1.862 415.52 1.33342C408.379 -0.158656 401.03 -0.379109 393.813 0.6822C389.206 1.23187 384.772 2.772 380.816 5.19684C376.861 7.62168 373.476 10.8738 370.896 14.73C367.541 20.8357 366.443 27.9282 367.795 34.7628C370.373 47.8748 381.253 54.2218 391.927 60.4493C393.194 61.1882 394.458 61.9255 395.704 62.6722C396.814 63.3323 397.656 64.3627 398.082 65.5822C398.507 66.8017 398.489 68.1322 398.03 69.3395C397.709 70.1884 397.142 70.9222 396.402 71.4471C395.662 71.9719 394.782 72.2638 393.875 72.2855C391.254 72.2208 388.656 71.7929 386.153 71.0141C384.484 70.4402 382.677 69.6964 380.805 68.9255C378.226 67.8634 375.522 66.75 372.881 65.9594C371.393 65.4491 369.833 65.177 368.26 65.1531C368.175 65.1607 368.093 65.1904 368.022 65.2394C367.951 65.2883 367.894 65.3547 367.857 65.4322C367.909 70.0821 367.788 74.5886 367.671 78.9782ZM405.534 18.8856C401.673 18.8292 397.901 20.0502 394.805 22.3588C387.92 28.4679 393.564 34.608 395.704 36.3756C399.266 38.9569 403.507 41.0947 407.797 43.2573C418.555 48.6811 429.623 54.2612 431.086 67.3861C433.009 84.5969 416.233 93.2178 401.379 93.4969C392.155 93.172 383.036 91.436 374.338 88.3492V72.8439C381.63 76.2522 389.577 78.0301 397.627 78.0537C400.699 78.2308 403.764 77.6112 406.526 76.2551C408.287 75.2609 409.593 73.6232 410.171 71.686C410.75 69.7489 410.555 67.663 409.627 65.8666C408.555 63.9894 406.975 62.4525 405.069 61.4321L394.122 55.23C388.687 52.6047 383.754 49.0466 379.548 44.7174C376.539 41.0582 374.576 36.6534 373.866 31.9694C373.156 27.2854 373.727 22.4966 375.516 18.1104C379.145 9.30338 391.021 5.39605 399.394 4.99291C408.376 4.749 417.315 6.29874 425.691 9.55146L421.039 23.3201C416.209 20.8458 410.942 19.3394 405.534 18.8856Z" fill="#391197"/>
</svg>
