<svg width="48" height="48" viewBox="0 0 48 48" fill="none" xmlns="http://www.w3.org/2000/svg">
<g clip-path="url(#clip0)">
<path d="M32.2947 9.87451L0.0942383 42.0749L6.01933 48L38.2198 15.7996L32.2947 9.87451ZM27.2433 18.918L32.2947 13.8666L34.2278 15.7996L29.1763 20.851L27.2433 18.918Z" fill="#0F0348"/>
<path d="M42.0508 3.85885L38.5205 7.38916L40.5165 9.38517L44.0468 5.85486L42.0508 3.85885Z" fill="#0F0348"/>
<path d="M40.0575 23.7048L38.0615 25.7008L41.6584 29.2977L43.6544 27.3017L40.0575 23.7048Z" fill="#0F0348"/>
<path d="M20.6054 4.25161L18.6094 6.24762L22.1839 9.82214L24.1799 7.82613L20.6054 4.25161Z" fill="#0F0348"/>
<path d="M47.8816 15.3627H42.792V18.1856H47.8816H47.9061V15.3627H47.8816Z" fill="#0F0348"/>
<path d="M29.7202 0.0016875V5.09128H32.5431V0.0016875V0L29.7202 0.0016875Z" fill="#0F0348"/>
</g>
<defs>
<clipPath id="clip0">
<rect width="48" height="48" fill="white"/>
</clipPath>
</defs>
</svg>
