<svg width="268" height="347" viewBox="0 0 268 347" fill="none" xmlns="http://www.w3.org/2000/svg">
<g filter="url(#filter0_d)">
<path d="M25 111C25 102.163 32.1634 95 41 95H227C235.837 95 243 102.163 243 111V313H25V111Z" fill="#FC1158"/>
</g>
<path d="M117.468 118.888V133H122.172V114.904H114.876V118.888H117.468ZM132.433 125.056C132.697 123.784 133.753 123.112 135.025 123.112C136.201 123.112 137.281 123.88 137.497 125.056H132.433ZM141.553 127.12C141.553 122.92 139.081 120.28 134.809 120.28C130.801 120.28 127.993 122.752 127.993 126.856C127.993 131.104 131.041 133.408 135.121 133.408C136.537 133.408 137.929 133.072 139.057 132.376C140.185 131.68 141.049 130.624 141.385 129.184H137.185C136.705 130 136.033 130.312 135.097 130.312C133.297 130.312 132.361 129.352 132.361 127.576H141.553V127.12ZM147.921 120.688H143.553V133H147.921V128.032C147.921 125.92 148.521 124.312 150.945 124.312C151.617 124.312 152.193 124.384 152.793 124.72V120.52H151.953C150.249 120.52 148.809 121.192 147.969 122.704H147.921V120.688ZM91.9462 162H96.6502V156H99.3142C103.418 156 105.722 154.128 105.722 149.856C105.722 145.704 103.034 143.904 99.1462 143.904H91.9462V162ZM96.6502 147.696H97.4422C99.2662 147.696 100.826 147.72 100.826 150C100.826 152.208 99.1462 152.208 97.4422 152.208H96.6502V147.696ZM107.645 149.688V157.104C107.645 161.16 110.501 162.408 114.197 162.408C117.893 162.408 120.749 161.16 120.749 157.104V149.688H116.381V156.264C116.381 157.824 115.997 158.928 114.197 158.928C112.397 158.928 112.013 157.824 112.013 156.264V149.688H107.645ZM127.066 154.056C127.33 152.784 128.386 152.112 129.658 152.112C130.834 152.112 131.914 152.88 132.13 154.056H127.066ZM136.186 156.12C136.186 151.92 133.714 149.28 129.442 149.28C125.434 149.28 122.626 151.752 122.626 155.856C122.626 160.104 125.674 162.408 129.754 162.408C131.17 162.408 132.562 162.072 133.69 161.376C134.818 160.68 135.682 159.624 136.018 158.184H131.818C131.338 159 130.666 159.312 129.73 159.312C127.93 159.312 126.994 158.352 126.994 156.576H136.186V156.12ZM147.786 150.072C146.514 149.496 145.122 149.28 143.73 149.28C141.042 149.28 138.306 150.624 138.306 153.648C138.306 155.856 139.674 156.528 141.042 156.888C142.41 157.248 143.778 157.296 143.778 158.256C143.778 158.928 142.962 159.192 142.41 159.192C141.33 159.192 139.842 158.568 138.954 157.944L137.37 160.992C138.858 161.904 140.586 162.408 142.338 162.408C145.194 162.408 148.146 161.064 148.146 157.824C148.146 155.544 146.61 154.584 144.57 154.176C143.97 154.056 142.602 153.936 142.602 153.096C142.602 152.472 143.466 152.256 143.97 152.256C144.714 152.256 145.65 152.496 146.322 152.856L147.786 150.072ZM155.267 153.288H157.739V149.688H155.267V145.992H150.899V149.688H149.483V153.288H150.899V162H155.267V153.288ZM165.643 149.28C161.683 149.28 158.227 151.656 158.227 155.856C158.227 160.056 161.707 162.408 165.643 162.408C169.603 162.408 173.059 160.032 173.059 155.856C173.059 151.656 169.603 149.28 165.643 149.28ZM165.643 153.072C167.419 153.072 168.451 154.344 168.451 155.856C168.451 157.416 167.419 158.616 165.643 158.616C163.867 158.616 162.835 157.416 162.835 155.856C162.835 154.344 163.867 153.072 165.643 153.072Z" fill="#FBFBFB"/>
<path d="M151.739 51.0098H122.038C112.671 51.0098 104.44 46.1791 100.019 38.0828C95.5977 29.9925 96.0551 20.596 101.244 12.9542C101.815 12.1144 102.773 11.6118 103.801 11.6118H169.976C171.001 11.6118 171.962 12.1144 172.533 12.9542C177.722 20.596 178.182 29.9895 173.758 38.0828C169.337 46.1791 161.106 51.0098 151.739 51.0098ZM105.524 17.6314C102.41 23.1272 102.352 29.6042 105.431 35.2415C108.766 41.3454 114.973 44.9902 122.038 44.9902H151.739C158.803 44.9902 165.011 41.3454 168.345 35.2415C171.425 29.6042 171.363 23.1302 168.253 17.6314H105.524Z" fill="#FDBC4B"/>
<path d="M144.61 67.1786C139.458 67.1786 134.309 67.1786 129.158 67.1786C130.641 63.8227 130.641 60.0153 129.158 56.6594C134.309 56.6594 139.458 56.6594 144.61 56.6594C143.13 60.0153 143.13 63.8227 144.61 67.1786Z" fill="#FFCC5B"/>
<path d="M150.842 67.1783H122.928C121.233 67.1783 119.858 68.5267 119.858 70.1881V72.5237H153.912V70.1881C153.912 68.5267 152.537 67.1783 150.842 67.1783Z" fill="#FDBC4B"/>
<path d="M158.186 72.5237H115.584C113.89 72.5237 112.514 73.8721 112.514 75.5335V90.8652H161.256V75.5335C161.256 73.8691 159.881 72.5237 158.186 72.5237Z" fill="#6F7070"/>
<path d="M162.92 90.8654H110.85C109.404 90.8654 108.231 92.0151 108.231 93.4327C108.231 94.8503 109.404 96 110.85 96H162.92C164.366 96 165.539 94.8503 165.539 93.4327C165.539 92.0151 164.366 90.8654 162.92 90.8654Z" fill="#636464"/>
<path d="M147.085 53.595H126.696C116.478 35.9186 110.368 23.5063 109.018 5.8269H164.76C163.409 23.5063 157.299 35.9186 147.085 53.595Z" fill="#FFCC5B"/>
<path d="M165.226 0H108.548C106.905 0 105.576 1.30323 105.576 2.91346C105.576 4.52369 106.905 5.82692 108.548 5.82692H165.226C166.868 5.82692 168.198 4.52369 168.198 2.91346C168.198 1.30624 166.868 0 165.226 0Z" fill="#FDBC4B"/>
<path d="M147.041 53.5953H126.726C125.001 53.5953 123.601 54.9678 123.601 56.6593C123.601 58.3508 125.001 59.7232 126.726 59.7232H147.041C148.767 59.7232 150.167 58.3508 150.167 56.6593C150.167 54.9678 148.77 53.5953 147.041 53.5953Z" fill="#FDBC4B"/>
<path d="M139.16 50.0254C139.16 48.0661 137.518 46.4558 135.519 46.4558H129.704C127.991 46.4558 126.597 45.0894 126.634 43.4461V43.1662C126.527 41.5559 127.847 40.1564 129.526 40.1564H141.7C143.698 40.1564 145.448 38.7207 145.589 36.7975C145.66 34.7328 144.017 33.0172 141.911 33.0172H130.917C129.241 33.0172 127.847 31.6538 127.847 30.0074L127.884 29.7967V29.7636C127.847 28.015 129.311 26.5793 131.098 26.5793H146.127C148.125 26.5793 149.875 25.1436 150.017 23.1843C150.087 21.1196 148.445 19.407 146.339 19.407H130.42C128.636 19.407 127.35 17.9713 127.35 16.2227C127.35 16.2227 127.35 16.2227 127.35 16.1865C127.35 16.1504 127.35 16.1504 127.35 16.1504C127.35 14.4349 128.636 12.9661 130.42 12.9661H139.664C141.626 12.9661 143.376 11.5304 143.483 9.60718C143.591 7.50636 141.911 5.8269 139.842 5.8269H109.018C110.368 23.5033 116.478 35.9156 126.693 53.595C126.693 53.595 126.772 53.595 126.923 53.595C127.868 53.595 131.617 53.595 135.627 53.595C137.592 53.5589 139.16 51.9848 139.16 50.0254Z" fill="#FFDB70"/>
<path d="M131.193 89.0683C131.23 87.9667 130.355 87.0488 129.228 87.0488H123.355C122.458 87.0488 121.715 86.3204 121.715 85.4415L121.734 85.3302V85.3121C121.715 84.3761 122.495 83.6116 123.45 83.6116H131.479C132.547 83.6116 133.48 82.8441 133.557 81.7967C133.594 80.6951 132.719 79.7772 131.592 79.7772H123.085C122.13 79.7772 121.445 79.0097 121.445 78.0766C121.445 78.0766 121.445 78.0766 121.445 78.0586C121.445 78.0405 121.445 78.0405 121.445 78.0405C121.445 77.1255 122.133 76.34 123.085 76.34H128.025C129.075 76.34 130.008 75.5725 130.066 74.5462C130.125 73.4235 129.228 72.5266 128.12 72.5266H115.584C113.89 72.5266 112.514 73.875 112.514 75.5364V90.8682H129.115C130.183 90.8652 131.116 90.0977 131.193 89.0683Z" fill="#787878"/>
<path opacity="0.1" d="M164.597 7.26574C164.643 6.77816 164.723 6.32368 164.76 5.83008H109.018C109.054 6.32368 109.134 6.77816 109.18 7.26574H164.597Z" fill="#010101"/>
<path d="M136.889 77.2418L138.111 80.94H142.067L138.866 83.2256L140.089 86.9237L136.889 84.6381L133.688 86.9237L134.911 83.2256L131.71 80.94H135.666L136.889 77.2418Z" fill="#FBFBFB"/>
<path d="M136.889 77.2417V82.5207L138.111 80.9399L136.889 77.2417Z" fill="#E5E5E5"/>
<path d="M136.889 82.5207L142.067 80.9398L138.866 83.2254L136.889 82.5207Z" fill="#E5E5E5"/>
<path d="M136.889 82.5209L140.089 86.9238L136.889 84.6382V82.5209Z" fill="#E5E5E5"/>
<path d="M136.889 82.5209L134.911 83.2256L133.688 86.9238L136.889 82.5209Z" fill="#E5E5E5"/>
<path d="M131.71 80.9398H135.666L136.889 82.5207L131.71 80.9398Z" fill="#E5E5E5"/>
<path d="M123.612 77.2419L124.834 80.9401H128.79L125.589 83.2257L126.813 86.9238L123.612 84.6382L120.411 86.9238L121.634 83.2257L118.434 80.9401H122.39L123.612 77.2419Z" fill="#FBFBFB"/>
<path d="M123.612 77.2418V82.5208L124.834 80.94L123.612 77.2418Z" fill="#E5E5E5"/>
<path d="M123.612 82.5208L128.79 80.9399L125.589 83.2255L123.612 82.5208Z" fill="#E5E5E5"/>
<path d="M123.612 82.5209L126.813 86.9238L123.612 84.6382V82.5209Z" fill="#E5E5E5"/>
<path d="M123.612 82.5209L121.634 83.2256L120.411 86.9238L123.612 82.5209Z" fill="#E5E5E5"/>
<path d="M118.434 80.9399H122.39L123.612 82.5208L118.434 80.9399Z" fill="#E5E5E5"/>
<path d="M150.166 77.2418L151.388 80.94H155.344L152.143 83.2256L153.366 86.9237L150.166 84.6381L146.965 86.9237L148.188 83.2256L144.987 80.94H148.943L150.166 77.2418Z" fill="#FBFBFB"/>
<path d="M150.166 77.2417V82.5207L151.388 80.9399L150.166 77.2417Z" fill="#E5E5E5"/>
<path d="M150.166 82.5207L155.344 80.9398L152.143 83.2254L150.166 82.5207Z" fill="#E5E5E5"/>
<path d="M150.166 82.5209L153.366 86.9238L150.166 84.6382V82.5209Z" fill="#E5E5E5"/>
<path d="M150.166 82.5209L148.188 83.2256L146.965 86.9238L150.166 82.5209Z" fill="#E5E5E5"/>
<path d="M144.987 80.9398H148.943L150.166 82.5207L144.987 80.9398Z" fill="#E5E5E5"/>
<defs>
<filter id="filter0_d" x="0" y="79" width="268" height="268" filterUnits="userSpaceOnUse" color-interpolation-filters="sRGB">
<feFlood flood-opacity="0" result="BackgroundImageFix"/>
<feColorMatrix in="SourceAlpha" type="matrix" values="0 0 0 0 0 0 0 0 0 0 0 0 0 0 0 0 0 0 127 0"/>
<feOffset dy="9"/>
<feGaussianBlur stdDeviation="12.5"/>
<feColorMatrix type="matrix" values="0 0 0 0 0 0 0 0 0 0 0 0 0 0 0 0 0 0 0.25 0"/>
<feBlend mode="normal" in2="BackgroundImageFix" result="effect1_dropShadow"/>
<feBlend mode="normal" in="SourceGraphic" in2="effect1_dropShadow" result="shape"/>
</filter>
</defs>
</svg>
