<svg width="72" height="72" viewBox="0 0 72 72" fill="none" xmlns="http://www.w3.org/2000/svg">
<path d="M70.9587 41.8242L63.1578 19.9862C61.288 14.752 56.3299 11.258 50.7717 11.258H21.2282C15.67 11.258 10.7118 14.7518 8.84209 19.9862L1.04134 41.8242C-0.916441 47.3048 -0.0818316 53.3956 3.27798 58.1476C5.71332 61.5919 10.817 61.6098 13.2764 58.1826L21.024 47.386C21.9848 46.0471 23.5318 45.2531 25.1796 45.2531H46.8203C48.4682 45.2531 50.0151 46.0471 50.9759 47.386L58.7235 58.1826C61.1828 61.6098 66.2866 61.5919 68.7219 58.1476C72.0818 53.3956 72.9165 47.3048 70.9587 41.8242Z" fill="#407093"/>
<path d="M70.9588 41.8242L63.1579 19.9862C61.2882 14.752 56.33 11.258 50.7718 11.258H38.6693C44.2275 11.258 49.1857 14.7518 51.0554 19.9862L58.8563 41.8242C60.6084 46.7291 60.1222 52.1217 57.5929 56.6069L58.7237 58.1826C61.1831 61.6098 66.2868 61.5919 68.7222 58.1476C72.0818 53.3956 72.9164 47.3048 70.9588 41.8242Z" fill="#2B4D66"/>
<path d="M24.9505 20.3585H22.167C22.0056 20.3585 21.8748 20.2276 21.8748 20.0663V17.2828C21.8748 16.7985 21.4821 16.406 20.998 16.406H17.9975C17.5131 16.406 17.1207 16.7986 17.1207 17.2828V20.0663C17.1207 20.2277 16.9897 20.3585 16.8284 20.3585H14.0448C13.5605 20.3585 13.168 20.7512 13.168 21.2353V24.2358C13.168 24.7202 13.5606 25.1126 14.0448 25.1126H16.8283C16.9897 25.1126 17.1205 25.2436 17.1205 25.4049V28.1884C17.1205 28.6727 17.5131 29.0652 17.9973 29.0652H20.9978C21.4821 29.0652 21.8746 28.6726 21.8746 28.1884V25.4049C21.8746 25.2434 22.0056 25.1126 22.1668 25.1126H24.9504C25.4347 25.1126 25.8272 24.72 25.8272 24.2358V21.2353C25.8273 20.7512 25.4347 20.3585 24.9505 20.3585Z" fill="#DAE7EF"/>
<path d="M24.9505 20.3585H23.9217V22.3302C23.9217 22.8145 23.5291 23.207 23.0449 23.207H20.9922C20.4272 23.207 19.9693 23.665 19.9693 24.2299V26.2828C19.9693 26.7671 19.5767 27.1596 19.0925 27.1596H17.1208V28.1884C17.1208 28.6727 17.5134 29.0652 17.9976 29.0652H20.9981C21.4824 29.0652 21.8749 28.6726 21.8749 28.1884V25.4048C21.8749 25.2434 22.0058 25.1126 22.1671 25.1126H24.9506C25.435 25.1126 25.8274 24.72 25.8274 24.2358V21.2353C25.8273 20.7511 25.4347 20.3585 24.9505 20.3585Z" fill="#C1D5E4"/>
<path d="M44.1456 40.9105C47.0832 40.9105 49.4646 38.5291 49.4646 35.5915C49.4646 32.6539 47.0832 30.2725 44.1456 30.2725C41.208 30.2725 38.8266 32.6539 38.8266 35.5915C38.8266 38.5291 41.208 40.9105 44.1456 40.9105Z" fill="#DAE7EF"/>
<path d="M27.8716 40.9105C30.8092 40.9105 33.1906 38.5291 33.1906 35.5915C33.1906 32.6539 30.8092 30.2725 27.8716 30.2725C24.934 30.2725 22.5526 32.6539 22.5526 35.5915C22.5526 38.5291 24.934 40.9105 27.8716 40.9105Z" fill="#DAE7EF"/>
<path d="M45.4593 30.4363C45.566 30.8565 45.6231 31.2966 45.6231 31.75C45.6231 34.6877 43.2418 37.069 40.3041 37.069C39.8508 37.069 39.4106 37.0119 38.9904 36.9052C39.5754 39.2073 41.6614 40.9104 44.1456 40.9104C47.0832 40.9104 49.4646 38.5291 49.4646 35.5915C49.4646 33.1073 47.7615 31.0211 45.4593 30.4363Z" fill="#C1D5E4"/>
<path d="M29.1853 30.4363C29.2921 30.8565 29.3491 31.2966 29.3491 31.75C29.3491 34.6877 26.9678 37.069 24.0301 37.069C23.5768 37.069 23.1366 37.0119 22.7164 36.9052C23.3013 39.2073 25.3875 40.9104 27.8716 40.9104C30.8093 40.9104 33.1906 38.5291 33.1906 35.5915C33.1906 33.1073 31.4875 31.0213 29.1853 30.4363Z" fill="#C1D5E4"/>
<path d="M36.0232 24.6032C37.7701 24.6032 39.1862 23.1871 39.1862 21.4403C39.1862 19.6934 37.7701 18.2773 36.0232 18.2773C34.2764 18.2773 32.8603 19.6934 32.8603 21.4403C32.8603 23.1871 34.2764 24.6032 36.0232 24.6032Z" fill="#DAE7EF"/>
<path d="M37.2655 18.5308C37.4286 18.9122 37.519 19.3321 37.519 19.7731C37.519 21.5199 36.1029 22.936 34.3561 22.936C33.9151 22.936 33.4952 22.8455 33.1138 22.6825C33.5966 23.8117 34.7174 24.6032 36.0232 24.6032C37.7701 24.6032 39.1861 23.1871 39.1861 21.4402C39.1861 20.1344 38.3947 19.0136 37.2655 18.5308Z" fill="#C1D5E4"/>
<path d="M52.4416 17.0291C51.461 17.0291 50.6661 17.8241 50.6661 18.8046C50.6661 19.7852 51.461 20.5802 52.4416 20.5802C53.4223 20.5802 54.2171 19.7852 54.2171 18.8046C54.2171 17.8241 53.4223 17.0291 52.4416 17.0291Z" fill="#F6E266"/>
<path d="M52.4416 28.4718C53.4223 28.4718 54.2171 27.6768 54.2171 26.6962C54.2171 25.7157 53.4222 24.9207 52.4416 24.9207C51.461 24.9207 50.6661 25.7157 50.6661 26.6962C50.6661 27.6768 51.461 28.4718 52.4416 28.4718Z" fill="#86F1A7"/>
<path d="M56.3873 24.5259C57.3679 24.5259 58.1629 23.731 58.1629 22.7504C58.1629 21.7698 57.3679 20.9749 56.3873 20.9749C55.4067 20.9749 54.6118 21.7698 54.6118 22.7504C54.6118 23.731 55.4067 24.5259 56.3873 24.5259Z" fill="#DD5790"/>
<path d="M50.2715 22.7504C50.2715 21.7698 49.4765 20.9749 48.4958 20.9749C47.5152 20.9749 46.7203 21.7698 46.7203 22.7504C46.7203 23.731 47.5152 24.5259 48.4958 24.5259C49.4765 24.5261 50.2715 23.731 50.2715 22.7504Z" fill="#61A2F9"/>
<path d="M44.1455 41.9651C40.631 41.9651 37.7718 39.106 37.7718 35.5915C37.7718 32.077 40.631 29.2178 44.1455 29.2178C47.66 29.2178 50.5192 32.0771 50.5192 35.5915C50.5192 39.1058 47.6601 41.9651 44.1455 41.9651ZM44.1455 31.3271C41.7941 31.3271 39.8812 33.2402 39.8812 35.5915C39.8812 37.9427 41.7942 39.8558 44.1455 39.8558C46.4967 39.8558 48.4098 37.9429 48.4098 35.5915C48.4098 33.2401 46.4969 31.3271 44.1455 31.3271Z" fill="#DD5790"/>
<path d="M27.8716 41.9651C24.3571 41.9651 21.4979 39.1058 21.4979 35.5915C21.4979 32.0771 24.3571 29.2178 27.8716 29.2178C31.3861 29.2178 34.2453 32.0771 34.2453 35.5915C34.2453 39.1058 31.3861 41.9651 27.8716 41.9651ZM27.8716 31.3271C25.5202 31.3271 23.6073 33.2402 23.6073 35.5915C23.6073 37.9427 25.5204 39.8558 27.8716 39.8558C30.2229 39.8558 32.1359 37.9427 32.1359 35.5915C32.1359 33.2402 30.2229 31.3271 27.8716 31.3271Z" fill="#DD5790"/>
</svg>
