<svg width="268" height="300" viewBox="0 0 268 300" fill="none" xmlns="http://www.w3.org/2000/svg">
<g filter="url(#filter0_d)">
<path d="M26 111.081C26 102.244 33.1634 95.0809 42 95.0809H228C236.837 95.0809 244 102.244 244 111.081V269H26V111.081Z" fill="#FD551F"/>
</g>
<path d="M108.556 132.016L111.364 129.4C113.212 127.72 114.292 126.208 114.292 123.616C114.292 119.68 111.1 117.184 107.308 117.184C103.036 117.184 100.396 119.992 100.252 124.144H105.436C105.388 123.88 105.364 123.616 105.364 123.376C105.364 122.152 106.06 121.168 107.332 121.168C108.58 121.168 109.396 122.368 109.396 123.52C109.396 125.176 108.388 126.808 107.332 127.96L99.9404 136H114.484V132.016H108.556ZM126.306 136H130.674V116.08H126.306V124.888C125.394 123.808 123.906 123.28 122.49 123.28C118.842 123.28 116.322 126.304 116.322 129.832C116.322 133.36 118.89 136.408 122.538 136.408C123.978 136.408 125.49 135.856 126.258 134.632H126.306V136ZM123.642 127.072C125.418 127.072 126.45 128.344 126.45 129.856C126.45 131.416 125.418 132.616 123.642 132.616C121.866 132.616 120.834 131.416 120.834 129.856C120.834 128.344 121.866 127.072 123.642 127.072ZM139.905 123.28C135.945 123.28 132.489 125.656 132.489 129.856C132.489 134.056 135.969 136.408 139.905 136.408C143.865 136.408 147.321 134.032 147.321 129.856C147.321 125.656 143.865 123.28 139.905 123.28ZM139.905 127.072C141.681 127.072 142.713 128.344 142.713 129.856C142.713 131.416 141.681 132.616 139.905 132.616C138.129 132.616 137.097 131.416 137.097 129.856C137.097 128.344 138.129 127.072 139.905 127.072ZM83.4462 165H88.1502V159H90.8142C94.9182 159 97.2222 157.128 97.2222 152.856C97.2222 148.704 94.5342 146.904 90.6462 146.904H83.4462V165ZM88.1502 150.696H88.9422C90.7662 150.696 92.3262 150.72 92.3262 153C92.3262 155.208 90.6462 155.208 88.9422 155.208H88.1502V150.696ZM99.1453 152.688V160.104C99.1453 164.16 102.001 165.408 105.697 165.408C109.393 165.408 112.249 164.16 112.249 160.104V152.688H107.881V159.264C107.881 160.824 107.497 161.928 105.697 161.928C103.897 161.928 103.513 160.824 103.513 159.264V152.688H99.1453ZM118.566 157.056C118.83 155.784 119.886 155.112 121.158 155.112C122.334 155.112 123.414 155.88 123.63 157.056H118.566ZM127.686 159.12C127.686 154.92 125.214 152.28 120.942 152.28C116.934 152.28 114.126 154.752 114.126 158.856C114.126 163.104 117.174 165.408 121.254 165.408C122.67 165.408 124.062 165.072 125.19 164.376C126.318 163.68 127.182 162.624 127.518 161.184H123.318C122.838 162 122.166 162.312 121.23 162.312C119.43 162.312 118.494 161.352 118.494 159.576H127.686V159.12ZM139.286 153.072C138.014 152.496 136.622 152.28 135.23 152.28C132.542 152.28 129.806 153.624 129.806 156.648C129.806 158.856 131.174 159.528 132.542 159.888C133.91 160.248 135.278 160.296 135.278 161.256C135.278 161.928 134.462 162.192 133.91 162.192C132.83 162.192 131.342 161.568 130.454 160.944L128.87 163.992C130.358 164.904 132.086 165.408 133.838 165.408C136.694 165.408 139.646 164.064 139.646 160.824C139.646 158.544 138.11 157.584 136.07 157.176C135.47 157.056 134.102 156.936 134.102 156.096C134.102 155.472 134.966 155.256 135.47 155.256C136.214 155.256 137.15 155.496 137.822 155.856L139.286 153.072ZM146.767 156.288H149.239V152.688H146.767V148.992H142.399V152.688H140.983V156.288H142.399V165H146.767V156.288ZM157.143 152.28C153.183 152.28 149.727 154.656 149.727 158.856C149.727 163.056 153.207 165.408 157.143 165.408C161.103 165.408 164.559 163.032 164.559 158.856C164.559 154.656 161.103 152.28 157.143 152.28ZM157.143 156.072C158.919 156.072 159.951 157.344 159.951 158.856C159.951 160.416 158.919 161.616 157.143 161.616C155.367 161.616 154.335 160.416 154.335 158.856C154.335 157.344 155.367 156.072 157.143 156.072Z" fill="#FBFBFB"/>
<path d="M138.739 51.0098H109.038C99.6709 51.0098 91.4398 46.1791 87.0187 38.0828C82.5977 29.9925 83.0551 20.596 88.2437 12.9542C88.8148 12.1144 89.7727 11.6118 90.8012 11.6118H156.976C158.001 11.6118 158.962 12.1144 159.533 12.9542C164.722 20.596 165.182 29.9895 160.758 38.0828C156.337 46.1791 148.106 51.0098 138.739 51.0098ZM92.5235 17.6314C89.4104 23.1272 89.352 29.6042 92.4314 35.2415C95.7656 41.3454 101.973 44.9902 109.038 44.9902H138.739C145.803 44.9902 152.011 41.3454 155.345 35.2415C158.425 29.6042 158.363 23.1302 155.253 17.6314H92.5235Z" fill="#CACACA"/>
<path d="M131.61 67.1782C126.458 67.1782 121.309 67.1782 116.158 67.1782C117.641 63.8223 117.641 60.015 116.158 56.6591C121.309 56.6591 126.458 56.6591 131.61 56.6591C130.13 60.015 130.13 63.8223 131.61 67.1782Z" fill="#E5E5E5"/>
<path d="M137.842 67.1782H109.928C108.233 67.1782 106.858 68.5266 106.858 70.188V72.5236H140.912V70.188C140.912 68.5266 139.537 67.1782 137.842 67.1782Z" fill="#CACACA"/>
<path d="M145.186 72.5237H102.584C100.89 72.5237 99.5142 73.8721 99.5142 75.5335V90.8652H148.256V75.5335C148.256 73.8691 146.881 72.5237 145.186 72.5237Z" fill="#6F7070"/>
<path d="M149.92 90.8654H97.8498C96.4038 90.8654 95.231 92.0151 95.231 93.4327C95.231 94.8503 96.4038 96 97.8498 96H149.92C151.366 96 152.539 94.8503 152.539 93.4327C152.539 92.0151 151.366 90.8654 149.92 90.8654Z" fill="#636464"/>
<path d="M134.085 53.595H113.696C103.478 35.9186 97.3685 23.5063 96.0176 5.8269H151.76C150.409 23.5063 144.299 35.9186 134.085 53.595Z" fill="#E5E5E5"/>
<path d="M152.226 0H95.5476C93.9051 0 92.5757 1.30323 92.5757 2.91346C92.5757 4.52369 93.9051 5.82692 95.5476 5.82692H152.226C153.868 5.82692 155.198 4.52369 155.198 2.91346C155.198 1.30624 153.868 0 152.226 0Z" fill="#CACACA"/>
<path d="M134.041 53.5953H113.726C112.001 53.5953 110.601 54.9678 110.601 56.6593C110.601 58.3508 112.001 59.7232 113.726 59.7232H134.041C135.767 59.7232 137.167 58.3508 137.167 56.6593C137.167 54.9678 135.77 53.5953 134.041 53.5953Z" fill="#CACACA"/>
<path d="M126.16 50.0254C126.16 48.0661 124.518 46.4558 122.519 46.4558H116.704C114.991 46.4558 113.597 45.0894 113.634 43.4461V43.1662C113.527 41.5559 114.847 40.1564 116.526 40.1564H128.7C130.698 40.1564 132.448 38.7207 132.589 36.7975C132.66 34.7328 131.017 33.0172 128.911 33.0172H117.917C116.241 33.0172 114.847 31.6538 114.847 30.0074L114.884 29.7967V29.7636C114.847 28.015 116.311 26.5793 118.098 26.5793H133.127C135.125 26.5793 136.875 25.1436 137.017 23.1843C137.087 21.1196 135.445 19.407 133.339 19.407H117.42C115.636 19.407 114.35 17.9713 114.35 16.2227C114.35 16.2227 114.35 16.2227 114.35 16.1865C114.35 16.1504 114.35 16.1504 114.35 16.1504C114.35 14.4349 115.636 12.9661 117.42 12.9661H126.664C128.626 12.9661 130.376 11.5304 130.483 9.60718C130.591 7.50636 128.911 5.8269 126.842 5.8269H96.0176C97.3685 23.5033 103.478 35.9156 113.693 53.595C113.693 53.595 113.772 53.595 113.923 53.595C114.868 53.595 118.617 53.595 122.627 53.595C124.592 53.5589 126.16 51.9848 126.16 50.0254Z" fill="#F0EFEF"/>
<path d="M118.193 89.0683C118.23 87.9667 117.355 87.0488 116.228 87.0488H110.355C109.458 87.0488 108.715 86.3204 108.715 85.4415L108.734 85.3302V85.3121C108.715 84.3761 109.495 83.6116 110.45 83.6116H118.479C119.547 83.6116 120.48 82.8441 120.557 81.7967C120.594 80.6951 119.719 79.7772 118.592 79.7772H110.085C109.13 79.7772 108.445 79.0097 108.445 78.0766C108.445 78.0766 108.445 78.0766 108.445 78.0586C108.445 78.0405 108.445 78.0405 108.445 78.0405C108.445 77.1255 109.133 76.34 110.085 76.34H115.025C116.075 76.34 117.008 75.5725 117.066 74.5462C117.125 73.4235 116.228 72.5266 115.12 72.5266H102.584C100.89 72.5266 99.5142 73.875 99.5142 75.5364V90.8682H116.115C117.183 90.8652 118.116 90.0977 118.193 89.0683Z" fill="#787878"/>
<path opacity="0.1" d="M151.597 7.26574C151.643 6.77816 151.723 6.32368 151.76 5.83008H96.0176C96.0544 6.32368 96.1342 6.77816 96.1803 7.26574H151.597Z" fill="#010101"/>
<path d="M131.301 77.4738L132.523 81.1719H136.479L133.278 83.4575L134.501 87.1556L131.301 84.8701L128.1 87.1556L129.323 83.4575L126.123 81.1719H130.079L131.301 77.4738Z" fill="#FBFBFB"/>
<path d="M131.301 77.4739V82.7529L132.523 81.172L131.301 77.4739Z" fill="#E5E5E5"/>
<path d="M131.301 82.7527L136.479 81.1719L133.278 83.4575L131.301 82.7527Z" fill="#E5E5E5"/>
<path d="M131.301 82.7531L134.501 87.156L131.301 84.8704V82.7531Z" fill="#E5E5E5"/>
<path d="M131.301 82.7531L129.323 83.4578L128.1 87.156L131.301 82.7531Z" fill="#E5E5E5"/>
<path d="M126.123 81.1719H130.079L131.301 82.7527L126.123 81.1719Z" fill="#E5E5E5"/>
<path d="M116.478 77.4736L117.7 81.1718H121.656L118.455 83.4574L119.678 87.1555L116.478 84.8699L113.277 87.1555L114.5 83.4574L111.299 81.1718H115.255L116.478 77.4736Z" fill="#FBFBFB"/>
<path d="M116.478 77.4739V82.7529L117.7 81.172L116.478 77.4739Z" fill="#E5E5E5"/>
<path d="M116.478 82.7527L121.656 81.1719L118.455 83.4575L116.478 82.7527Z" fill="#E5E5E5"/>
<path d="M116.478 82.7531L119.678 87.156L116.478 84.8704V82.7531Z" fill="#E5E5E5"/>
<path d="M116.478 82.7531L114.5 83.4578L113.277 87.156L116.478 82.7531Z" fill="#E5E5E5"/>
<path d="M111.299 81.1719H115.255L116.478 82.7527L111.299 81.1719Z" fill="#E5E5E5"/>
<defs>
<filter id="filter0_d" x="0" y="76.0809" width="268" height="223.919" filterUnits="userSpaceOnUse" color-interpolation-filters="sRGB">
<feFlood flood-opacity="0" result="BackgroundImageFix"/>
<feColorMatrix in="SourceAlpha" type="matrix" values="0 0 0 0 0 0 0 0 0 0 0 0 0 0 0 0 0 0 127 0"/>
<feOffset dx="-1" dy="6"/>
<feGaussianBlur stdDeviation="12.5"/>
<feColorMatrix type="matrix" values="0 0 0 0 0 0 0 0 0 0 0 0 0 0 0 0 0 0 0.25 0"/>
<feBlend mode="normal" in2="BackgroundImageFix" result="effect1_dropShadow"/>
<feBlend mode="normal" in="SourceGraphic" in2="effect1_dropShadow" result="shape"/>
</filter>
</defs>
</svg>
