<svg width="268" height="269" viewBox="0 0 268 269" fill="none" xmlns="http://www.w3.org/2000/svg">
<g filter="url(#filter0_d)">
<path d="M24 111.338C24 102.502 31.1634 95.3383 40 95.3383H226C234.837 95.3383 242 102.502 242 111.338V238H24V111.338Z" fill="#9C0A59"/>
</g>
<path d="M142.132 122.112C142.108 120.936 142.852 120.024 144.052 120.024C145.108 120.024 145.9 120.744 145.9 121.848C145.9 123.096 145.036 123.84 143.836 123.84H143.356V126.984C143.62 126.912 143.884 126.84 144.172 126.84C145.492 126.84 146.668 127.896 146.668 129.264C146.668 130.728 145.588 131.688 144.148 131.688C142.66 131.688 141.628 130.56 141.628 129.12H136.828C136.78 130.704 137.812 132.576 138.892 133.68C140.356 135.168 142.228 135.72 144.292 135.72C147.892 135.72 151.324 133.68 151.324 129.72C151.324 127.872 150.292 125.664 148.372 125.16C149.692 124.416 150.268 122.88 150.268 121.44C150.268 118.056 147.724 116.184 144.484 116.184C142.636 116.184 141.028 116.712 139.876 117.744C138.724 118.776 137.956 120.216 137.764 122.112H142.132ZM157.433 127.056C157.697 125.784 158.753 125.112 160.025 125.112C161.201 125.112 162.281 125.88 162.497 127.056H157.433ZM166.553 129.12C166.553 124.92 164.081 122.28 159.809 122.28C155.801 122.28 152.993 124.752 152.993 128.856C152.993 133.104 156.041 135.408 160.121 135.408C161.537 135.408 162.929 135.072 164.057 134.376C165.185 133.68 166.049 132.624 166.385 131.184H162.185C161.705 132 161.033 132.312 160.097 132.312C158.297 132.312 157.361 131.352 157.361 129.576H166.553V129.12ZM172.921 122.688H168.553V135H172.921V130.032C172.921 127.92 173.521 126.312 175.945 126.312C176.617 126.312 177.193 126.384 177.793 126.72V122.52H176.953C175.249 122.52 173.809 123.192 172.969 124.704H172.921V122.688ZM116.946 164H121.65V158H124.314C128.418 158 130.722 156.128 130.722 151.856C130.722 147.704 128.034 145.904 124.146 145.904H116.946V164ZM121.65 149.696H122.442C124.266 149.696 125.826 149.72 125.826 152C125.826 154.208 124.146 154.208 122.442 154.208H121.65V149.696ZM132.645 151.688V159.104C132.645 163.16 135.501 164.408 139.197 164.408C142.893 164.408 145.749 163.16 145.749 159.104V151.688H141.381V158.264C141.381 159.824 140.997 160.928 139.197 160.928C137.397 160.928 137.013 159.824 137.013 158.264V151.688H132.645ZM152.066 156.056C152.33 154.784 153.386 154.112 154.658 154.112C155.834 154.112 156.914 154.88 157.13 156.056H152.066ZM161.186 158.12C161.186 153.92 158.714 151.28 154.442 151.28C150.434 151.28 147.626 153.752 147.626 157.856C147.626 162.104 150.674 164.408 154.754 164.408C156.17 164.408 157.562 164.072 158.69 163.376C159.818 162.68 160.682 161.624 161.018 160.184H156.818C156.338 161 155.666 161.312 154.73 161.312C152.93 161.312 151.994 160.352 151.994 158.576H161.186V158.12ZM172.786 152.072C171.514 151.496 170.122 151.28 168.73 151.28C166.042 151.28 163.306 152.624 163.306 155.648C163.306 157.856 164.674 158.528 166.042 158.888C167.41 159.248 168.778 159.296 168.778 160.256C168.778 160.928 167.962 161.192 167.41 161.192C166.33 161.192 164.842 160.568 163.954 159.944L162.37 162.992C163.858 163.904 165.586 164.408 167.338 164.408C170.194 164.408 173.146 163.064 173.146 159.824C173.146 157.544 171.61 156.584 169.57 156.176C168.97 156.056 167.602 155.936 167.602 155.096C167.602 154.472 168.466 154.256 168.97 154.256C169.714 154.256 170.65 154.496 171.322 154.856L172.786 152.072ZM180.267 155.288H182.739V151.688H180.267V147.992H175.899V151.688H174.483V155.288H175.899V164H180.267V155.288ZM190.643 151.28C186.683 151.28 183.227 153.656 183.227 157.856C183.227 162.056 186.707 164.408 190.643 164.408C194.603 164.408 198.059 162.032 198.059 157.856C198.059 153.656 194.603 151.28 190.643 151.28ZM190.643 155.072C192.419 155.072 193.451 156.344 193.451 157.856C193.451 159.416 192.419 160.616 190.643 160.616C188.867 160.616 187.835 159.416 187.835 157.856C187.835 156.344 188.867 155.072 190.643 155.072Z" fill="#FBFBFB"/>
<path d="M171.739 51.0098H142.038C132.671 51.0098 124.44 46.1791 120.019 38.0828C115.598 29.9925 116.055 20.596 121.244 12.9542C121.815 12.1144 122.773 11.6118 123.801 11.6118H189.976C191.001 11.6118 191.962 12.1144 192.533 12.9542C197.722 20.596 198.182 29.9895 193.758 38.0828C189.337 46.1791 181.106 51.0098 171.739 51.0098ZM125.524 17.6314C122.41 23.1272 122.352 29.6042 125.431 35.2415C128.766 41.3454 134.973 44.9902 142.038 44.9902H171.739C178.803 44.9902 185.011 41.3454 188.345 35.2415C191.425 29.6042 191.363 23.1302 188.253 17.6314H125.524Z" fill="#EC9923"/>
<path d="M164.61 67.1782C159.458 67.1782 154.309 67.1782 149.158 67.1782C150.641 63.8223 150.641 60.015 149.158 56.6591C154.309 56.6591 159.458 56.6591 164.61 56.6591C163.13 60.015 163.13 63.8223 164.61 67.1782Z" fill="#F8B545"/>
<path d="M170.842 67.1783H142.928C141.233 67.1783 139.858 68.5267 139.858 70.1881V72.5237H173.912V70.1881C173.912 68.5267 172.537 67.1783 170.842 67.1783Z" fill="#EC9923"/>
<path d="M178.186 72.5237H135.584C133.89 72.5237 132.514 73.8721 132.514 75.5335V90.8652H181.256V75.5335C181.256 73.8691 179.881 72.5237 178.186 72.5237Z" fill="#6F7070"/>
<path d="M182.92 90.8654H130.85C129.404 90.8654 128.231 92.0151 128.231 93.4327C128.231 94.8503 129.404 96 130.85 96H182.92C184.366 96 185.539 94.8503 185.539 93.4327C185.539 92.0151 184.366 90.8654 182.92 90.8654Z" fill="#636464"/>
<path d="M167.085 53.5949H146.696C136.478 35.9185 130.368 23.5062 129.018 5.82678H184.76C183.409 23.5062 177.299 35.9185 167.085 53.5949Z" fill="#F8B545"/>
<path d="M185.226 0H128.548C126.905 0 125.576 1.30323 125.576 2.91346C125.576 4.52369 126.905 5.82692 128.548 5.82692H185.226C186.868 5.82692 188.198 4.52369 188.198 2.91346C188.198 1.30624 186.868 0 185.226 0Z" fill="#EC9923"/>
<path d="M167.041 53.5953H146.726C145.001 53.5953 143.601 54.9678 143.601 56.6593C143.601 58.3508 145.001 59.7232 146.726 59.7232H167.041C168.767 59.7232 170.167 58.3508 170.167 56.6593C170.167 54.9678 168.77 53.5953 167.041 53.5953Z" fill="#EC9923"/>
<path d="M159.16 50.0253C159.16 48.066 157.518 46.4557 155.519 46.4557H149.704C147.991 46.4557 146.597 45.0893 146.634 43.4459V43.166C146.527 41.5558 147.847 40.1563 149.526 40.1563H161.7C163.698 40.1563 165.448 38.7206 165.589 36.7974C165.66 34.7327 164.017 33.0171 161.911 33.0171H150.917C149.241 33.0171 147.847 31.6537 147.847 30.0073L147.884 29.7966V29.7635C147.847 28.0148 149.311 26.5792 151.098 26.5792H166.127C168.125 26.5792 169.875 25.1435 170.017 23.1841C170.087 21.1194 168.445 19.4069 166.339 19.4069H150.42C148.636 19.4069 147.35 17.9712 147.35 16.2225C147.35 16.2225 147.35 16.2225 147.35 16.1864C147.35 16.1503 147.35 16.1503 147.35 16.1503C147.35 14.4347 148.636 12.966 150.42 12.966H159.664C161.626 12.966 163.376 11.5303 163.483 9.60706C163.591 7.50624 161.911 5.82678 159.842 5.82678H129.018C130.368 23.5032 136.478 35.9155 146.693 53.5949C146.693 53.5949 146.772 53.5949 146.923 53.5949C147.868 53.5949 151.617 53.5949 155.627 53.5949C157.592 53.5588 159.16 51.9847 159.16 50.0253Z" fill="#FDCC5B"/>
<path d="M151.193 89.0683C151.23 87.9667 150.355 87.0488 149.228 87.0488H143.355C142.458 87.0488 141.715 86.3204 141.715 85.4415L141.734 85.3302V85.3121C141.715 84.3761 142.495 83.6116 143.45 83.6116H151.479C152.547 83.6116 153.48 82.8441 153.557 81.7967C153.594 80.6951 152.719 79.7772 151.592 79.7772H143.085C142.13 79.7772 141.445 79.0097 141.445 78.0766C141.445 78.0766 141.445 78.0766 141.445 78.0586C141.445 78.0405 141.445 78.0405 141.445 78.0405C141.445 77.1255 142.133 76.34 143.085 76.34H148.025C149.075 76.34 150.008 75.5725 150.066 74.5462C150.125 73.4235 149.228 72.5266 148.12 72.5266H135.584C133.89 72.5266 132.514 73.875 132.514 75.5364V90.8682H149.115C150.183 90.8652 151.116 90.0977 151.193 89.0683Z" fill="#787878"/>
<path opacity="0.1" d="M184.597 7.26574C184.643 6.77816 184.723 6.32368 184.76 5.83008H129.018C129.054 6.32368 129.134 6.77816 129.18 7.26574H184.597Z" fill="#010101"/>
<path d="M156.889 77.4735L158.111 81.1717H162.067L158.866 83.4573L160.089 87.1554L156.889 84.8698L153.688 87.1554L154.911 83.4573L151.71 81.1717H155.666L156.889 77.4735Z" fill="#FBFBFB"/>
<path d="M156.889 77.4736V82.7526L158.111 81.1718L156.889 77.4736Z" fill="#E5E5E5"/>
<path d="M156.889 82.7526L162.067 81.1718L158.866 83.4573L156.889 82.7526Z" fill="#E5E5E5"/>
<path d="M156.889 82.7528L160.089 87.1557L156.889 84.8701V82.7528Z" fill="#E5E5E5"/>
<path d="M156.889 82.7528L154.911 83.4576L153.688 87.1557L156.889 82.7528Z" fill="#E5E5E5"/>
<path d="M151.71 81.1718H155.666L156.889 82.7526L151.71 81.1718Z" fill="#E5E5E5"/>
<defs>
<filter id="filter0_d" x="0" y="76.3383" width="268" height="192.662" filterUnits="userSpaceOnUse" color-interpolation-filters="sRGB">
<feFlood flood-opacity="0" result="BackgroundImageFix"/>
<feColorMatrix in="SourceAlpha" type="matrix" values="0 0 0 0 0 0 0 0 0 0 0 0 0 0 0 0 0 0 127 0"/>
<feOffset dx="1" dy="6"/>
<feGaussianBlur stdDeviation="12.5"/>
<feColorMatrix type="matrix" values="0 0 0 0 0 0 0 0 0 0 0 0 0 0 0 0 0 0 0.25 0"/>
<feBlend mode="normal" in2="BackgroundImageFix" result="effect1_dropShadow"/>
<feBlend mode="normal" in="SourceGraphic" in2="effect1_dropShadow" result="shape"/>
</filter>
</defs>
</svg>
