<svg width="17" height="20" viewBox="0 0 17 20" fill="none" xmlns="http://www.w3.org/2000/svg">
<path d="M12.856 4.79377C12.3519 5.18335 12.2831 5.89375 12.6727 6.39791C13.4748 7.42915 13.9102 8.66663 13.9102 9.97286C13.9102 13.1582 11.3436 15.7249 8.1811 15.7707C8.57068 15.3353 8.57068 14.6478 8.15819 14.2124C7.72278 13.754 6.98945 13.754 6.53113 14.1895L3.89575 16.7332L6.46238 19.5519C6.69154 19.804 6.98945 19.9185 7.31028 19.9185C7.58528 19.9185 7.86027 19.8269 8.08944 19.6206C8.54776 19.2081 8.5936 18.5206 8.20402 18.0394C12.604 18.0165 16.1789 14.3957 16.1789 9.97286C16.1789 8.13955 15.5831 6.42083 14.4602 4.9771C14.0706 4.49586 13.3602 4.40419 12.856 4.79377Z" fill="#794608"/>
<path d="M2.58954 15.3123C2.84162 15.3123 3.07079 15.2436 3.27703 15.0832C3.78119 14.6936 3.87286 13.9832 3.48328 13.479C2.70412 12.4707 2.29163 11.2562 2.29163 9.97284C2.29163 6.8333 4.81242 4.26667 7.95196 4.17501C7.56238 4.61042 7.5853 5.29791 7.99779 5.7104C8.22696 5.93956 8.52487 6.05415 8.82278 6.05415C9.12069 6.05415 9.39569 5.93956 9.62485 5.73332L12.2373 3.18961L9.67068 0.370901C9.23527 -0.0874258 8.52487 -0.133258 8.04362 0.302152C7.5853 0.714645 7.53947 1.42505 7.95196 1.90629C3.55203 1.97504 0 5.5729 0 9.99575C0 11.7832 0.572908 13.479 1.64997 14.8998C1.90205 15.1748 2.2458 15.3123 2.58954 15.3123Z" fill="#794608"/>
</svg>
