<svg width="25" height="28" viewBox="0 0 25 28" fill="none" xmlns="http://www.w3.org/2000/svg">
<path d="M5.55556 5.6V1.4C5.55556 1.0287 5.70188 0.672601 5.96235 0.41005C6.22282 0.147499 6.57609 0 6.94444 0H23.6111C23.9795 0 24.3327 0.147499 24.5932 0.41005C24.8537 0.672601 25 1.0287 25 1.4V21C25 21.3713 24.8537 21.7274 24.5932 21.9899C24.3327 22.2525 23.9795 22.4 23.6111 22.4H19.4444V26.6C19.4444 27.3728 18.8194 28 18.0458 28H1.39861C1.21545 28.0011 1.03389 27.9657 0.864337 27.8959C0.694788 27.826 0.540602 27.7231 0.410637 27.593C0.280672 27.4629 0.17749 27.3082 0.10702 27.1378C0.0365494 26.9674 0.000179687 26.7846 0 26.6L0.0041667 6.99999C0.0041667 6.22719 0.629167 5.6 1.40278 5.6H5.55556ZM8.33333 5.6H18.2444C18.9072 5.6 19.4444 6.13725 19.4444 6.79999V19.6H22.2222V2.8H8.33333V5.6ZM5.55556 12.6V15.4H13.8889V12.6H5.55556ZM5.55556 18.2V21H13.8889V18.2H5.55556Z" fill="#BF9DF4"/>
</svg>
