<svg width="18" height="14" viewBox="0 0 18 14" fill="none" xmlns="http://www.w3.org/2000/svg">
<path d="M16.2 1.75C16.6774 1.75 17.1352 1.93437 17.4728 2.26256C17.8104 2.59075 18 3.03587 18 3.5V12.25C18 12.7141 17.8104 13.1592 17.4728 13.4874C17.1352 13.8156 16.6774 14 16.2 14H1.8C1.32261 14 0.864773 13.8156 0.527208 13.4874C0.189642 13.1592 0 12.7141 0 12.25V1.75C0 1.28587 0.189642 0.840752 0.527208 0.512563C0.864773 0.184374 1.32261 0 1.8 0H7.2L9 1.75H16.2ZM7.875 7.875H10.8V11.375H12.6V7.875H15.525L11.7 4.15625" fill="white"/>
</svg>
