<svg width="49" height="56" viewBox="0 0 49 56" fill="none" xmlns="http://www.w3.org/2000/svg">
<path d="M23.4633 8.79874C10.5262 8.79874 0 19.3249 0 32.262C0 45.1991 10.5262 55.7253 23.4633 55.7253C36.4003 55.7253 46.9265 45.1991 46.9265 32.262C46.9265 19.3249 36.4003 8.79874 23.4633 8.79874ZM23.4633 49.8594C13.7583 49.8594 5.86582 41.967 5.86582 32.262C5.86582 22.557 13.7583 14.6646 23.4633 14.6646C33.1683 14.6646 41.0607 22.557 41.0607 32.262C41.0607 41.967 33.1683 49.8594 23.4633 49.8594Z" fill="#9368DF"/>
<path d="M20.5304 20.5304H26.3962V35.1949H20.5304V20.5304ZM14.6646 0H32.262V5.86581H14.6646V0Z" fill="#9368DF"/>
<path d="M44.8529 16.7382L38.9871 10.8724L43.1342 6.72528L49 12.5911L44.8529 16.7382Z" fill="#9368DF"/>
</svg>
